<svg width="20" height="18" viewBox="0 0 20 18" fill="none" xmlns="http://www.w3.org/2000/svg">
<path d="M1.25 7.60862H16.075L11.5375 2.15862C11.3253 1.90335 11.2232 1.57425 11.2537 1.24372C11.2842 0.913183 11.4447 0.608294 11.7 0.396121C11.9553 0.183948 12.2844 0.0818704 12.6149 0.112345C12.9454 0.14282 13.2503 0.30335 13.4625 0.558621L19.7125 8.05862C19.7545 8.11828 19.7922 8.18095 19.825 8.24612C19.825 8.30862 19.825 8.34612 19.9125 8.40862C19.9692 8.55194 19.9988 8.70451 20 8.85862C19.9988 9.01273 19.9692 9.1653 19.9125 9.30862C19.9125 9.37112 19.9125 9.40862 19.825 9.47112C19.7922 9.5363 19.7545 9.59897 19.7125 9.65862L13.4625 17.1586C13.345 17.2997 13.1978 17.4132 13.0314 17.491C12.8651 17.5688 12.6836 17.6089 12.5 17.6086C12.2079 17.6092 11.9249 17.5075 11.7 17.3211C11.5734 17.2162 11.4688 17.0873 11.3921 16.9419C11.3154 16.7964 11.2682 16.6373 11.2531 16.4736C11.238 16.3099 11.2553 16.1448 11.3041 15.9878C11.3529 15.8308 11.4322 15.6849 11.5375 15.5586L16.075 10.1086H1.25C0.91848 10.1086 0.600536 9.97692 0.366116 9.7425C0.131695 9.50808 0 9.19014 0 8.85862C0 8.5271 0.131695 8.20916 0.366116 7.97474C0.600536 7.74032 0.91848 7.60862 1.25 7.60862Z" fill="white"/>
</svg>
